Simulation
nRows=16
nColumns=15
endheader
time  TH_x TH_y TH_z SC_y  SC_z  SC_x  AC_y  AC_z  AC_x  GH_y  GH_z  GH_yy  EL_x  PS_y
1.55  0.000000  0.000000  0.000000  -33.93671075527178  5.686815519521945  77.62402766482418  48.35071676253607  -33.92029462617834  -40.130543586846144  21.777468201139502  54.36305876895788  -20.420940129741304  17.95892398670897  0.000000
1.581  0.000000  0.000000  0.000000  -34.246842747319484  6.0121390402426655  78.08376753759653  48.36523458983358  -33.56488419252421  -39.80596377552804  21.763142896789102  54.83009793225851  -20.514163121849723  17.9278276025653  0.000000
1.612  0.000000  0.000000  0.000000  -34.523191486754115  6.2885250699780455  78.4549946924427  48.38870177346832  -33.281485915531945  -39.48537100601237  21.702469758089666  55.27322708088634  -20.54576098344403  17.89977136260704  0.000000
1.643  0.000000  0.000000  0.000000  -34.76859411350619  6.494063006234177  78.74140775832923  48.439720629914376  -33.06068263235573  -39.18256306990392  21.602300586328937  55.67258750610155  -20.54994174753039  17.88782573603084  0.000000
1.674  0.000000  0.000000  0.000000  -34.99341639539064  6.632710366138675  78.93389594369044  48.52564404993504  -32.85994404047471  -38.891793111323935  21.501095488814123  55.98774734660399  -20.55556707252021  17.895652270171656  0.000000
1.705  0.000000  0.000000  0.000000  -35.20842860449316  6.726542897649442  79.04400901746132  48.633062534473  -32.656035775083886  -38.614397044092094  21.445230255081178  56.17972682507045  -20.573110493183055  17.917328170595415  0.000000
1.736  0.000000  0.000000  0.000000  -35.41291832874104  6.793801133727792  79.09890255213729  48.73709345213445  -32.456721102774324  -38.37214005457883  21.464776360784946  56.22802048131903  -20.601154119342823  17.94545602570565  0.000000
1.767  0.000000  0.000000  0.000000  -35.59075672964484  6.839334871703855  79.10839642997304  48.817570240310744  -32.282086474211546  -38.19257491736016  21.564936058165344  56.13999472217512  -20.634509806371263  17.974288096714105  0.000000
1.798  0.000000  0.000000  0.000000  -35.716767345808506  6.859944211848122  79.06993799350887  48.859645792438506  -32.161870763097895  -38.10519597637558  21.730845574512763  55.94348050540233  -20.669285304600937  18.00112416093179  0.000000
1.829  0.000000  0.000000  0.000000  -35.767973277824275  6.847991431523471  78.9834353923016  48.85424566347228  -32.12793029692518  -38.13481418112195  21.94068297312397  55.667025086621514  -20.707773736203276  18.02443596783122  0.000000
1.8599999999999999  0.000000  0.000000  0.000000  -35.733511005789076  6.796064151708425  78.85452072452755  48.802215992634174  -32.20272197329763  -38.28889503139867  22.17395683167758  55.32139195162525  -20.768277190067458  18.044726322952048  0.000000
1.891  0.000000  0.000000  0.000000  -35.61843751699255  6.6928148260270275  78.69437256001703  48.71912174595311  -32.39503158245086  -38.55316485616689  22.413264500309335  54.89600933330422  -20.884663382719232  18.061841980661296  0.000000
1.922  0.000000  0.000000  0.000000  -35.43671159816735  6.523316065678339  78.50952369813986  48.630143878387024  -32.698273026962916  -38.90014332204396  22.641220784797433  54.36988266057153  -21.09010517267999  18.074791720696545  0.000000
1.953  0.000000  0.000000  0.000000  -35.20611698538433  6.281820027357302  78.27304096669106  48.56109433336603  -33.07873939666398  -39.28380547236083  22.8489831159461  53.72769557272876  -21.392303587940425  18.08472719638573  0.000000
1.984  0.000000  0.000000  0.000000  -34.94509579177263  5.97770756139802  77.95733421371486  48.519330871735505  -33.50837089136613  -39.66910833780235  23.03900032944806  52.97003857515221  -21.760893118101816  18.09784819494852  0.000000
2.015  0.000000  0.000000  0.000000  -34.668811340947855  5.6301476938069435  77.55844117490213  48.48691646725476  -33.97983242815727  -40.04904034471248  23.21888926191273  52.10894699012948  -22.13786444447241  18.123925485950686  0.000000
